<svg xmlns="http://www.w3.org/2000/svg" viewBox="0 0 618 420">
    <path d="M441.523 413.23c-2.335-1.129-4.989-2.053-5.896-2.053-.908 0-2.397-1.453-3.31-3.23-1.68-3.274-4.968-7.701-9.162-12.335-1.97-2.178-2.87-2.464-6.115-1.946-2.96.473-3.943.253-4.42-.99-.488-1.27-.908-1.353-2.052-.406-1.655 1.372-3.515.569-3.515-1.517 0-1.859-7.26-7.088-10.972-7.902-4.126-.905-9.021-7.75-8.26-11.55.51-2.545.297-2.854-1.962-2.854-2.023 0-2.65-.6-3.11-2.981l-1.15-5.95c-.33-1.701-1.866-3.93-3.599-5.217-1.663-1.237-4.736-4.007-6.829-6.156-3.164-3.25-3.708-4.394-3.227-6.795.483-2.412.27-2.853-1.305-2.685-4.024.429-4.372.036-4.372-4.938 0-2.7-.496-5.216-1.102-5.59-.68-.42-.87-2.137-.495-4.473.51-3.185.252-4.04-1.607-5.34-1.218-.852-2.956-1.55-3.862-1.55-2.637 0-3.97-2.447-4.587-8.422-.652-6.303-2.649-8.47-7.802-8.47-2.04 0-3.908-.876-5.5-2.576-4.06-4.333-5.781-4.836-8.34-2.436-1.955 1.834-2.602 1.956-4.882.919-1.489-.677-2.627-2.008-2.627-3.07 0-1.032-1.12-2.912-2.488-4.179-1.369-1.266-2.489-3.063-2.489-3.993 0-3.02-1.976-5.487-6.063-7.569-2.204-1.122-5.274-3.456-6.822-5.186-2.41-2.693-3.042-2.957-4.395-1.836-1.349 1.118-2.02.87-4.59-1.697-1.656-1.653-3.01-3.562-3.01-4.24 0-.68-.67-1.944-1.488-2.81-.818-.866-2.672-3.053-4.118-4.862-2.328-2.909-2.485-3.559-1.365-5.65 1.06-1.975.987-3.064-.444-6.65-1.836-4.604-4.217-7.765-5.848-7.765-.557 0-1.794.707-2.75 1.57-1.935 1.75-4.452.928-8.546-2.792-1.191-1.082-2.683-1.648-3.316-1.258-.643.397-2.398-.485-3.986-2.004-2.562-2.45-3.145-2.607-6.005-1.611-1.742.606-3.535.877-3.983.6-1.702-1.05-10.559-2.623-14.166-2.515-2.664.08-4.78-.66-7.24-2.534-3.085-2.35-4.087-2.584-8.92-2.086-5.024.517-5.666.341-8.285-2.274-2.456-2.452-3.496-2.799-7.717-2.573-5.005.268-7.37.886-10.85 2.84-1.095.614-6.917 3.857-12.938 7.206-6.021 3.35-12.74 7.328-14.929 8.841-2.19 1.513-6.168 3.865-8.842 5.227-4.66 2.374-4.99 2.409-7.962.849-3.656-1.919-11.375-1.035-20.517 2.348-7.516 2.782-10.71 2.59-15.355-.918-3.274-2.473-4.832-2.953-9.58-2.953-9.333 0-11.78-.86-14.973-5.262-3.726-5.136-3.685-7.185.173-8.528 1.683-.586 4.461-2.242 6.174-3.681l3.114-2.617 1.705 2.102c2.948 3.635 6.998 3.702 11.844.197 2.342-1.694 4.847-3.08 5.567-3.08 1.688 0 3.683-3.711 2.98-5.543-.301-.782-1.862-1.413-3.496-1.413-4.48 0-7.957-1.672-9.217-4.433-1.584-3.473-4.618-4.237-6.45-1.624-2.012 2.868-3.666 2.631-9.742-1.396-2.886-1.913-5.66-3.478-6.163-3.478-.503 0-3.243-1.531-6.088-3.402-2.846-1.871-6.002-3.664-7.013-3.985-1.012-.32-2.83-1.92-4.04-3.554s-2.789-2.971-3.509-2.971c-3.648 0-6.516-8.186-4.083-11.655.774-1.103 1.698-3.963 2.054-6.355.819-5.504 2.872-8.821 5.46-8.821 2.8 0 7.523-2.581 8.267-4.517 1.206-3.137.611-6.348-1.372-7.408-1.095-.585-1.99-1.942-1.99-3.016s-.51-1.953-1.133-1.953c-.784 0-.939 1.646-.503 5.348.734 6.234-.033 7.27-5.74 7.745-2.615.218-4.224.967-4.964 2.31a97.49 97.49 0 0 1-1.37 2.426c-.15.242-2.613-1.858-5.474-4.664-5.376-5.276-8.95-7.202-13.366-7.202-1.41 0-3.06-.679-3.667-1.509-.62-.845-3.46-1.786-6.465-2.141-4.635-.548-5.578-1.038-6.967-3.616-2.615-4.855-4.414-6.21-12.16-9.163C2.618 132.63 0 130.762 0 128.361c0-.666 2.932-3.511 6.517-6.324 3.584-2.812 7.334-6.455 8.333-8.096.999-1.64 4.759-5.406 8.356-8.368l6.539-5.386 4.153 1.463c4.958 1.747 20.161.989 23.3-1.161 2.231-1.527 5.642-1.761 7.045-.483.52.474 3.1 1.575 5.735 2.446l4.79 1.583-.311-2.693c-.254-2.192-.868-2.741-3.297-2.946-10.953-.924-13.26-1.432-13.804-3.037-.313-.924-.954-2.35-1.424-3.17-3.49-6.088-5.175-10.258-5.175-12.801 0-2.496-.435-3.019-2.737-3.292-.462 3.387-4.443-2.575-4.443-2.575 3.288-.912 3.798-1.441 4.497-2.97.569-1.243 2.189-2.514 3.6-2.825 4.964-1.094 6.592-1.66 11.461-3.991 2.703-1.294 6.308-2.352 8.012-2.352 1.704 0 3.56-.461 4.124-1.025.705-.704 2.859-.548 6.878.497 3.217.837 7.8 1.522 10.183 1.522 4.545 0 22.398 6.662 27.11 10.116 1.374 1.008 5.629 4.78 9.454 8.38 12.537 11.802 11.737 11.506 30.516 11.318 24.293-.244 24.781-.212 31.199 1.998 8.031 2.765 15.762 3.448 22.721 2.005 3.18-.66 11.009-1.787 17.396-2.506 14.322-1.611 26.649-3.935 34.504-6.503 3.284-1.074 8.373-1.953 11.31-1.953 3.438 0 6.625-.7 8.956-1.967 1.99-1.083 6.754-3.133 10.586-4.557l10.948-4.068c2.19-.813 4.876-2.303 5.971-3.312 1.095-1.008 5.26-2.504 9.256-3.323 7.165-1.47 11.88-3.674 13.435-6.282.438-.733 1.727-1.334 2.865-1.334 3.313 0 12.938-5.815 16.93-10.228 3.489-3.856 4.107-4.123 12.33-5.322 6.066-.884 9.803-2.018 12.48-3.787 2.102-1.389 4.39-2.533 5.086-2.543.696-.01 3.628-1.318 6.515-2.908 2.887-1.589 6.694-3.197 8.46-3.574 1.765-.377 3.739-1.11 4.385-1.63.647-.519 3.782-.948 6.967-.954 3.185-.006 8.702-.069 12.26-.14 3.558-.07 9.38.398 12.938 1.038 3.558.641 9.605 1.659 13.436 2.261 3.832.603 8.31 1.577 9.953 2.166 1.783.639 11.805 1.077 24.88 1.088 20.594.018 22.192-.114 26.872-2.218 3.288-1.477 8.353-2.541 14.929-3.134 5.474-.494 11.52-1.365 13.435-1.936 1.916-.571 7.888-1.919 13.27-2.995 5.384-1.076 10.746-2.626 11.916-3.445 1.171-.818 2.984-1.488 4.03-1.488 4.298 0 18.365-11.278 23.607-18.927 1.864-2.72 4.901-2.075 4.901 1.04 0 2.166 3.478 4.094 5.797 3.212 1.909-.725 10.127 7.675 10.127 10.351 0 1.22-.448 2.495-.995 2.833-2.574 1.589.459 9.815 4.037 10.949 1.994-.669-.031 4.234.408 6.289.558 2.537-.231 3.687-7.674 11.18-4.563 4.592-19.475 19.777-33.137 33.742-13.663 13.965-26.432 26.583-28.375 28.04-3.078 2.307-6.93 3.249-29.857 7.302-17.566 3.106-26.88 5.184-27.995 6.244-.919.875-4.485 6.509-7.925 12.521-6.153 10.754-6.265 11.084-6.918 20.372-.366 5.192-1.25 15.101-1.967 22.02l-1.303 12.58 7.555 16.239 7.556 16.238.713 16.59.714 16.592-7.583 10.667-7.583 10.667v7.597c0 5.595-.676 9.541-2.566 14.976-4.494 12.923-5.248 23.63-3.876 55.077.668 15.304.958 28.272.644 28.819-.313.546-3.808 5.493-7.767 10.992-5.073 7.049-9.146 14.378-13.803 24.843-1.917 1.888-2.417-5.288-4.843-6.455zM414.556 159.7c.797-1.287-2.305-4.906-4.205-4.906-.753 0-1.628-.67-1.943-1.49-.693-1.805-2.352-1.98-2.345-.25.005 1.45 5.65 7.702 6.953 7.702.488 0 1.18-.475 1.54-1.056zm-338.79-20.463c.75-.904 2.837-2.259 4.635-3.01 3.306-1.379 5.728-5.429 4.758-7.953-.282-.734-1.67-1.774-3.086-2.311-2.735-1.039-2.525-2.427.72-4.764 2.07-1.491 2.348-4.218.608-5.956-1.728-1.725-2.787-1.466-2.787.681 0 1.03-1.12 2.606-2.488 3.501-2.797 1.83-3.233 4.696-.995 6.55 2.346 1.944 1.776 3.612-1.99 5.831-1.916 1.129-3.49 2.627-3.497 3.328-.008.702-.284 2.282-.614 3.512-.475 1.771-.188 2.236 1.385 2.236 1.091 0 2.599-.74 3.35-1.645zm355.87-23.364c1.746-1.447 1.633-4.279-.233-5.825-1.229-1.018-1.984-1.022-3.863-.017-1.284.686-3.28.948-4.436.582-1.645-.522-2.364-.09-3.314 1.992-1.056 2.313-.96 2.845.738 4.108 2.132 1.586 8.789 1.082 11.108-.84zm31.845-35.616c3.578-5.502 3.832-5.67 9.678-6.4 6.128-.764 6.32-1.033 6.794-9.479.25-4.442.237-4.46-3.73-5.4-2.19-.518-4.15-1.065-4.355-1.215-.205-.15.355-2.089 1.244-4.309 1.993-4.973 2.049-6.977.196-6.977-.782 0-2.154-.73-3.048-1.624-1.505-1.503-2.016-1.224-6.841 3.727l-5.214 5.35-1.27 10.434c-1.026 8.429-1.756 11.071-3.796 13.748-2.777 3.645-2.328 4.758 2.183 5.414 4.913.714 5.8.359 8.159-3.27zM106.998 221.358c.344-.556 1.042-.753 1.552-.438 1.38.852 1.123 1.448-.625 1.448-.854 0-1.27-.455-.927-1.01z"/>
</svg>
